<svg width="40" height="40" viewBox="0 0 300 300" fill="none" xmlns="http://www.w3.org/2000/svg">
<g clip-path="url(#clip0_1_2)">
<path d="M132.511 0.963104C98.4144 5.44058 68.7654 19.6193 45.0462 42.8677C24.5769 62.9016 10.8356 87.0683 3.93645 115.196C0.971533 127.309 -0.0547823 136.608 0.00223535 150.212C0.059253 174.896 4.90575 195.217 16.0242 217.604C27.1426 239.877 44.7041 259.796 66.1428 274.262C94.7658 293.549 131.086 302.849 163.871 299.232C201.503 295.041 231.551 280.863 256.867 255.204C291.078 220.475 305.446 175.585 298.147 125.529C293.928 96.1385 277.108 63.7626 255.27 42.8103C234.63 23.0635 209.827 9.63107 182.687 3.54626C167.121 0.102051 147.108 -0.988617 132.511 0.963104ZM168.49 19.9063C209.599 25.9337 245.919 52.5115 264.735 90.3407C270.437 101.821 274.542 114.794 276.595 127.538C278.02 136.378 278.02 160.086 276.595 168.294C272.775 189.993 265.02 208.362 252.021 225.985C249.853 228.97 244.209 235.284 239.533 239.991L231.038 248.487L231.38 252.908L231.722 257.27L230.068 250.956C228.13 243.436 226.419 239.246 223.911 235.916C222.885 234.538 222.029 233.103 222.029 232.701C222.086 232.357 223.512 230.979 225.279 229.716C228.472 227.42 232.863 222.77 235.257 219.096C236.112 217.891 237.31 216.915 238.507 216.571C241.358 215.767 244.608 212.381 245.349 209.453C246.148 206.64 245.862 205.32 243.924 202.392L242.499 200.325L243.753 194.643C245.007 189.017 245.007 188.903 244.038 180.062C243.525 175.183 243.126 170.476 243.126 169.672C243.126 167.663 238.735 158.823 235.257 153.944C229.441 145.678 227.275 143.726 218.836 139.593C209.029 134.714 205.437 133.91 195.515 134.312C186.849 134.656 179.551 136.32 172.88 139.535C166.151 142.75 158.511 150.384 151.156 161.349C148.647 165.023 148.476 165.482 148.476 169.041C148.476 171.796 147.906 174.494 146.423 179.144C143.915 187.008 144.029 188.845 147.621 194.987C149.047 197.398 150.187 199.694 150.187 199.981C150.187 200.325 149.446 201.416 148.476 202.449C145.454 205.722 145.511 210.773 148.647 214.16C150.415 216.054 154.748 217.834 155.831 217.088C156.116 216.915 155.888 215.48 155.261 213.93C153.551 209.396 154.007 209.223 156.116 213.644C160.279 222.483 165.923 228.167 174.989 232.644C181.831 235.973 187.704 237.466 196.086 237.867C199.849 238.04 202.415 238.384 201.788 238.614C198.367 239.819 182.63 237.581 175.388 234.825L171.625 233.39L170.656 234.71C168.547 237.466 164.384 246.593 163.358 250.668C162.788 253.022 161.989 257.787 161.59 261.231C160.45 271.965 159.994 272.941 158.797 266.627C156.801 256.179 143.402 206.697 141.748 203.712C141.52 203.253 137.928 202.048 133.766 201.015C129.604 199.924 125.042 198.661 123.616 198.087C122.248 197.57 120.937 197.283 120.766 197.456C120.595 197.628 121.564 199.292 122.932 201.129C124.301 202.966 126.239 205.779 127.265 207.329C129.946 211.634 136.16 225.066 137.985 230.405C139.981 236.088 139.81 236.49 133.823 241.599C131.542 243.551 129.661 245.56 129.661 246.077C129.661 246.536 132.283 249.406 135.476 252.391C141.007 257.615 141.235 257.959 140.779 259.566L140.266 261.288L140.038 259.509C139.924 258.131 138.555 256.581 133.937 252.161C130.63 249.119 127.95 246.249 127.95 245.789C127.95 245.388 130.003 243.264 132.454 241.082C138.726 235.686 138.783 235.342 136.217 228.74C131.884 217.662 122.59 200.555 119.169 197.34C118.086 196.307 117.686 195.332 117.686 193.782C117.686 191.428 118.2 190.854 121.108 189.878C124.073 188.903 126.98 186.663 128.976 183.851C130.573 181.612 131.257 181.21 135.647 179.832C138.327 178.971 140.494 178.053 140.494 177.824C140.494 177.536 139.468 176.044 138.213 174.551C135.761 171.566 135.305 169.443 136.958 168.926C137.472 168.754 139.468 168.467 141.349 168.237C143.231 168.065 144.941 167.778 145.169 167.606C145.397 167.491 144.827 165.309 143.915 162.784C142.945 160.258 142.204 157.847 142.204 157.503C142.204 157.101 143.687 156.354 145.511 155.723C149.56 154.403 156.458 150.959 156.458 150.27C156.458 149.983 154.349 148.605 151.84 147.227C146.879 144.587 141.862 140.568 142.603 139.88C142.831 139.65 144.884 138.847 147.05 138.158C152.524 136.321 158.34 133.623 162.902 130.695C165.011 129.375 166.722 128.17 166.608 128.112C166.379 127.94 150.928 121.281 149.446 120.764C148.761 120.478 148.59 120.133 148.875 119.617C149.104 119.157 152.867 115.483 157.2 111.465C161.476 107.389 165.011 103.888 165.011 103.658C165.011 103.199 161.476 102.568 151.042 101.075C147.279 100.501 143.972 99.9269 143.744 99.6971C143.459 99.4679 146.081 94.4159 149.56 88.5035C155.204 78.8021 156.287 76.7357 155.717 76.7357C155.603 76.7357 150.928 78.4007 145.34 80.4671C137.186 83.4521 134.963 84.0263 134.393 83.4521C133.138 82.1891 131.941 72.7175 131.941 64.2215V56.0131L127.322 58.4815C121.906 61.4093 114.665 67.0919 111.301 71.0531C110.046 72.6029 108.735 73.8659 108.507 73.8659C108.221 73.8659 106.055 71.2253 103.603 67.9529C99.3841 62.3273 92.2566 54.3484 91.4586 54.3484C91.2306 54.3484 90.774 56.8742 90.432 59.9166C89.406 68.5271 86.3838 79.0319 84.9012 79.0319C84.5022 79.0319 81.7656 77.8841 78.8574 76.5059C74.1822 74.3249 67.0548 72.1433 64.4322 72.1433C63.7482 72.1433 64.0902 73.1765 65.7438 76.5635C68.2524 81.6725 70.533 89.6519 70.248 92.4071L70.077 94.2437L64.9452 94.6457C50.0067 95.7941 42.9936 96.4829 42.9936 96.7697C42.9936 96.9995 45.5023 99.6971 48.5813 102.854C54.34 108.71 58.5594 114.967 58.2742 117.148C58.1602 117.952 55.2523 120.362 49.2655 124.553C44.419 127.94 40.3707 130.982 40.2567 131.269C40.1427 131.557 40.7698 131.958 41.6821 132.188C47.783 133.508 50.4058 134.369 52.5725 135.632C55.5374 137.411 58.6164 140.052 60.156 142.234L61.296 143.841L54.9102 150.212C49.5505 155.608 48.6383 156.699 49.3225 157.331C49.7787 157.732 53.1997 159.053 56.9629 160.2C60.726 161.349 64.0332 162.554 64.3182 162.841C64.6032 163.128 64.1472 166.056 63.0636 170.074C62.0946 173.805 61.467 177.077 61.638 177.364C61.9236 177.881 71.331 177.422 72.8706 176.847C74.2962 176.331 74.8662 177.708 75.2658 182.244C75.4938 184.884 75.8358 187.123 76.0638 187.238C76.5198 187.524 82.9056 184.769 82.9056 184.31C82.9056 184.138 82.1646 182.933 81.2526 181.612C77.4324 175.986 74.8092 168.926 72.7566 158.536C71.3886 151.934 70.761 145.62 71.4456 145.62C71.6736 145.62 72.0726 147.457 72.3006 149.696C73.4412 162.497 79.314 178.742 84.6732 184.138C86.0418 185.516 89.007 187.467 91.8576 188.787L96.6474 191.026L96.4758 193.15L96.3048 195.274L83.6472 199.522L70.989 203.77L69.849 207.272C69.2214 209.223 66.5988 218.121 64.0902 227.133C59.4146 243.493 57.9892 247.626 58.6734 242.747C58.9585 240.336 58.8444 240.107 55.9365 236.892C37.7479 217.145 26.5155 194.011 22.1251 167.147C20.4716 157.331 20.6426 136.321 22.4102 126.677C27.3707 99.5825 38.3181 77.4821 56.2216 58.5963C85.4148 27.8854 126.296 13.7641 168.49 19.9063ZM91.3446 205.434C87.2394 213.988 79.941 234.481 80.568 235.572C80.853 236.088 83.3052 238.442 86.0418 240.852C88.8354 243.264 91.1736 245.502 91.2876 245.904C91.4586 246.306 90.603 247.569 89.406 248.774C88.1514 250.095 87.6954 250.382 88.2654 249.521C90.489 246.019 90.66 246.478 84.9012 241.14C81.024 237.523 79.485 235.744 79.485 234.768C79.485 231.783 90.774 203.024 91.9716 203.024C92.2566 203.024 91.9716 204.114 91.3446 205.434Z" fill="#2F2424"/>
</g>
<defs>
<clipPath id="clip0_1_2">
<rect width="300" height="300" fill="white"/>
</clipPath>
</defs>
</svg>
